<?xml version="1.0" encoding="UTF-8"?>
<svg version="1.1" xmlns="http://www.w3.org/2000/svg" width="500" height="500">
<path d="M0 0 C165 0 330 0 500 0 C500 165 500 330 500 500 C335 500 170 500 0 500 C0 335 0 170 0 0 Z " fill="#FEFEFE" transform="translate(0,0)"/>
<path d="M0 0 C1.90551758 0.04760742 1.90551758 0.04760742 4 1 C5.74487305 3.23950195 5.74487305 3.23950195 7.51171875 6.23828125 C8.17921143 7.35565674 8.8467041 8.47303223 9.53442383 9.62426758 C10.252271 10.85358782 10.96995912 12.08300095 11.6875 13.3125 C12.43319 14.56937507 13.18019837 15.82546881 13.9284668 17.08081055 C15.49347342 19.70848291 17.05263656 22.33950105 18.60839844 24.97265625 C20.96233053 28.94760852 23.35367728 32.89900301 25.7578125 36.84375 C26.14215958 37.47443893 26.52650665 38.10512787 26.92250061 38.75492859 C27.6821682 40.00082459 28.44201719 41.24661001 29.20205688 42.49227905 C32.14754262 47.32047309 35.08271062 52.154699 38 57 C38.44674072 57.73347656 38.89348145 58.46695313 39.35375977 59.22265625 C41.62223964 63.03230184 42.533481 65.51875956 42 70 C41 71 41 71 38.79173279 71.12025452 C37.81688431 71.11803391 36.84203583 71.11581329 35.83764648 71.11352539 C34.73658066 71.11344986 33.63551483 71.11337433 32.50108337 71.11329651 C31.3031868 71.10813522 30.10529022 71.10297394 28.87109375 71.09765625 C27.65172623 71.0962413 26.4323587 71.09482635 25.17604065 71.09336853 C21.2631693 71.08774967 17.35035419 71.07519396 13.4375 71.0625 C10.79231853 71.05748743 8.14713617 71.0529241 5.50195312 71.04882812 C-0.99871726 71.03777411 -7.49935461 71.02101764 -14 71 C-13.25654013 66.68974608 -11.91985505 63.91945233 -9.5 60.25 C-8.8709375 59.28578125 -8.241875 58.3215625 -7.59375 57.328125 C-6 55 -6 55 -5 54 C-3.65732587 53.91368126 -2.31025678 53.89293527 -0.96484375 53.90234375 C-0.15595703 53.90556641 0.65292969 53.90878906 1.48632812 53.91210938 C2.33646484 53.92048828 3.18660156 53.92886719 4.0625 53.9375 C4.91650391 53.94201172 5.77050781 53.94652344 6.65039062 53.95117188 C8.76695663 53.96299627 10.88348685 53.98093231 13 54 C12.48050781 53.17757812 11.96101563 52.35515625 11.42578125 51.5078125 C7.2484827 44.82104625 3.35615148 38.14795725 0 31 C-2.7295354 34.28727787 -5.04563408 37.5773037 -7.171875 41.28125 C-7.74929443 42.28285156 -8.32671387 43.28445312 -8.92163086 44.31640625 C-9.52499268 45.36699219 -10.12835449 46.41757813 -10.75 47.5 C-11.6946814 49.10681641 -11.6946814 49.10681641 -12.65844727 50.74609375 C-16.62247268 57.49554184 -16.62247268 57.49554184 -20.16796875 64.46875 C-23.17063553 70.46082676 -23.17063553 70.46082676 -26 73 C-31.22810239 74.05418236 -35.75878012 73.79846709 -41 73 C-41.96574587 70.45281797 -42.14286029 69.35053754 -41.09814453 66.78710938 C-40.61458496 65.98080078 -40.13102539 65.17449219 -39.6328125 64.34375 C-39.08520264 63.41747803 -38.53759277 62.49120605 -37.97338867 61.53686523 C-37.05843628 60.03361694 -37.05843628 60.03361694 -36.125 58.5 C-35.50020752 57.45207275 -34.87541504 56.40414551 -34.23168945 55.32446289 C-32.52603155 52.47205257 -30.80906519 49.62720903 -29.08416748 46.78643799 C-27.99018895 44.98383383 -26.89921125 43.17944602 -25.80908203 41.37451172 C-22.18021955 35.36786969 -18.53857627 29.36921171 -14.8828125 23.37890625 C-11.06078127 17.1125098 -7.29650665 10.81364923 -3.56640625 4.4921875 C-2 2 -2 2 0 0 Z " fill="#218D9E" transform="translate(254,176)"/>
<path d="M0 0 C1.84301758 0.11010742 1.84301758 0.11010742 4 1 C5.74487305 3.23950195 5.74487305 3.23950195 7.51171875 6.23828125 C8.17921143 7.35565674 8.8467041 8.47303223 9.53442383 9.62426758 C10.252271 10.85358782 10.96995912 12.08300095 11.6875 13.3125 C12.43319 14.56937507 13.18019837 15.82546881 13.9284668 17.08081055 C15.49347342 19.70848291 17.05263656 22.33950105 18.60839844 24.97265625 C20.96233053 28.94760852 23.35367728 32.89900301 25.7578125 36.84375 C26.14215958 37.47443893 26.52650665 38.10512787 26.92250061 38.75492859 C27.6821682 40.00082459 28.44201719 41.24661001 29.20205688 42.49227905 C32.14754262 47.32047309 35.08271062 52.154699 38 57 C38.44674072 57.73347656 38.89348145 58.46695313 39.35375977 59.22265625 C41.62223964 63.03230184 42.533481 65.51875956 42 70 C41 71 41 71 39.15234375 71.09765625 C37.1015625 71.06510417 35.05078125 71.03255208 33 71 C33 70.67 33 70.34 33 70 C35.31 70 37.62 70 40 70 C40 69.34 40 68.68 40 68 C38.77023437 67.96261719 37.54046875 67.92523438 36.2734375 67.88671875 C34.64059599 67.82102972 33.00778482 67.75458341 31.375 67.6875 C30.56675781 67.66494141 29.75851562 67.64238281 28.92578125 67.61914062 C23.91164875 67.39493145 20.39953264 66.65538135 16 64 C18.46278801 62.768606 20.2795055 62.92840804 23 63 C21.67278616 57.02753773 18.95869026 51.96279909 15.9375 46.6875 C15.54699463 45.99833496 15.15648926 45.30916992 14.75415039 44.59912109 C13.07573201 41.63767936 11.38944214 38.68079281 9.69921875 35.72607422 C8.84870827 34.23864445 7.9997856 32.75030545 7.15258789 31.26098633 C6.35351087 29.8562998 5.55071397 28.45372173 4.74389648 27.0534668 C2 22.22541186 2 22.22541186 2 20 C1.34 20 0.68 20 0 20 C-0.24492187 20.67417969 -0.48984375 21.34835938 -0.7421875 22.04296875 C-2.27261836 25.64090714 -4.15843308 28.93876063 -6.125 32.3125 C-6.49753906 32.95767578 -6.87007812 33.60285156 -7.25390625 34.26757812 C-8.16632213 35.84675945 -9.08275509 37.42361864 -10 39 C-10.33 39 -10.66 39 -11 39 C-11.71257491 28.98436373 -11.4061315 22.96640708 -5 15 C-4.00834339 13.33186446 -3.0485238 11.644299 -2.125 9.9375 C-1.71507812 9.18339844 -1.30515625 8.42929688 -0.8828125 7.65234375 C-0.59148437 7.10707031 -0.30015625 6.56179687 0 6 C0.66 6 1.32 6 2 6 C2.33 4.68 2.66 3.36 3 2 C1.68 1.67 0.36 1.34 -1 1 C-0.67 0.67 -0.34 0.34 0 0 Z " fill="#57CEA5" transform="translate(254,176)"/>
<path d="M0 0 C0.66 0 1.32 0 2 0 C2.31638428 0.58789307 2.63276855 1.17578613 2.95874023 1.78149414 C4.44804189 4.54379989 5.94220933 7.30343161 7.4375 10.0625 C7.97721436 11.06079834 8.51692871 12.05909668 9.07299805 13.08764648 C12.64926012 19.65671137 16.35274165 26.11156568 20.49584961 32.34204102 C22.25351463 35.11094307 23.03884848 36.58167508 22.73046875 39.90234375 C22.48941406 40.59457031 22.24835938 41.28679687 22 42 C22.99 42.495 22.99 42.495 24 43 C23 44 23 44 19.9375 44.0625 C18.968125 44.041875 17.99875 44.02125 17 44 C21.23605668 46.01989575 24.96184196 46.34635757 29.625 46.5625 C36.71067738 46.90355913 36.71067738 46.90355913 40 48 C40 48.66 40 49.32 40 50 C33.9833165 51.05575078 28.13452091 51.12939265 22.03515625 51.09765625 C21.00184677 51.0962413 19.96853729 51.09482635 18.90391541 51.09336853 C15.6234134 51.08779839 12.34298117 51.07525141 9.0625 51.0625 C6.83007911 51.05748114 4.59765715 51.05291891 2.36523438 51.04882812 C-3.08986731 51.03783875 -8.54492867 51.0211305 -14 51 C-13.25654013 46.68974608 -11.91985505 43.91945233 -9.5 40.25 C-8.8709375 39.28578125 -8.241875 38.3215625 -7.59375 37.328125 C-6 35 -6 35 -5 34 C-3.65732587 33.91368126 -2.31025678 33.89293527 -0.96484375 33.90234375 C-0.15595703 33.90556641 0.65292969 33.90878906 1.48632812 33.91210938 C2.33646484 33.92048828 3.18660156 33.92886719 4.0625 33.9375 C4.91650391 33.94201172 5.77050781 33.94652344 6.65039062 33.95117188 C8.76695663 33.96299627 10.88348685 33.98093231 13 34 C9.72468699 24.66516457 4.85667868 16.28270764 -0.03198242 7.72070312 C-0.7199051 6.49788369 -1.37254084 5.25491832 -2 4 C-1.0625 1.875 -1.0625 1.875 0 0 Z " fill="#2E7484" transform="translate(254,196)"/>
<path d="M0 0 C2.69971724 2.44245605 4.40509747 5.11158001 6.2578125 8.234375 C6.87970459 9.27682373 7.50159668 10.31927246 8.14233398 11.39331055 C8.79661377 12.50101807 9.45089355 13.60872559 10.125 14.75 C11.47224074 17.02238181 12.81989588 19.29451799 14.16796875 21.56640625 C14.82200684 22.67000488 15.47604492 23.77360352 16.14990234 24.91064453 C17.73271986 27.55368661 19.3443774 30.17207261 20.98828125 32.77734375 C21.41028809 33.45249023 21.83229492 34.12763672 22.26708984 34.82324219 C23.35611738 36.55787178 24.45689219 38.28511096 25.55859375 40.01171875 C27.148058 43.30694952 27.38611341 45.38745945 27 49 C26 50 26 50 24.15234375 50.09765625 C22.1015625 50.06510417 20.05078125 50.03255208 18 50 C18 49.67 18 49.34 18 49 C20.31 49 22.62 49 25 49 C25 48.34 25 47.68 25 47 C23.77023437 46.96261719 22.54046875 46.92523438 21.2734375 46.88671875 C19.64059599 46.82102972 18.00778482 46.75458341 16.375 46.6875 C15.56675781 46.66494141 14.75851562 46.64238281 13.92578125 46.61914062 C8.91164875 46.39493145 5.39953264 45.65538135 1 43 C3.46278801 41.768606 5.2795055 41.92840804 8 42 C6.47764038 35.14938171 3.08825139 29.679138 -0.5390625 23.7421875 C-2 21 -2 21 -2 18 C0.64 18.33 3.28 18.66 6 19 C3.9927092 15.9890638 3.16115776 15.36983503 0 14 C1.32 13.34 2.64 12.68 4 12 C3.67 10.35 3.34 8.7 3 7 C2.34 7 1.68 7 1 7 C0.67 4.69 0.34 2.38 0 0 Z " fill="#4BBE81" transform="translate(269,197)"/>
<path d="M0 0 C4.40508795 0.0396141 6.90160205 1.48395048 10.3125 4.3125 C12.04748116 7.78246232 11.92044181 11.52757195 11.3125 15.3125 C8.875 18.3125 8.875 18.3125 6.3125 20.3125 C5.9825 20.6425 5.6525 20.9725 5.3125 21.3125 C0.69705511 21.89419863 -2.68883167 21.9366677 -6.6875 19.4375 C-9.99253543 15.92589986 -10.07336099 13.24822482 -10.05078125 8.57421875 C-9.4793883 5.01683683 -7.4362971 3.45790262 -4.6875 1.3125 C-3.6875 0.3125 -3.6875 0.3125 0 0 Z " fill="#141E4A" transform="translate(272.6875,260.6875)"/>
<path d="M0 0 C3.83625 -0.12375 3.83625 -0.12375 7.75 -0.25 C8.54889648 -0.28641602 9.34779297 -0.32283203 10.17089844 -0.36035156 C13.67645605 -0.41509831 15.63458318 -0.2664855 18.49609375 1.8203125 C20.48515674 4.70316223 20.37303591 6.56806959 20 10 C19.67 10.66 19.34 11.32 19 12 C18.34 12 17.68 12 17 12 C17.99 14.97 18.98 17.94 20 21 C17.69 21 15.38 21 13 21 C11.5393715 18.35261084 11 17.10551666 11 14 C9.35 14 7.7 14 6 14 C6 16.31 6 18.62 6 21 C4.02 21 2.04 21 0 21 C0 14.07 0 7.14 0 0 Z " fill="#0F1A47" transform="translate(241,261)"/>
<path d="M0 0 C3.63 0 7.26 0 11 0 C13.54322809 6.93607661 14.94915607 13.69354394 16 21 C13.69 21 11.38 21 9 21 C9 20.01 9 19.02 9 18 C6.69 18 4.38 18 2 18 C2 18.99 2 19.98 2 21 C-0.31 21 -2.62 21 -5 21 C-4.42351925 13.64987044 -2.28953836 6.98575424 0 0 Z " fill="#121C49" transform="translate(170,261)"/>
<path d="M0 0 C2.31 0 4.62 0 7 0 C7 2.64 7 5.28 7 8 C9.31 8 11.62 8 14 8 C14 5.36 14 2.72 14 0 C16.31 0 18.62 0 21 0 C21 6.6 21 13.2 21 20 C18.69 20 16.38 20 14 20 C14 17.69 14 15.38 14 13 C11.69 13 9.38 13 7 13 C7 15.31 7 17.62 7 20 C4.69 20 2.38 20 0 20 C0 13.4 0 6.8 0 0 Z " fill="#1D4343" transform="translate(344,262)"/>
<path d="M0 0 C3.83625 -0.12375 3.83625 -0.12375 7.75 -0.25 C8.54889648 -0.28641602 9.34779297 -0.32283203 10.17089844 -0.36035156 C13.67852558 -0.41513063 15.62934806 -0.27274388 18.484375 1.828125 C20.54909509 4.7868476 20.58903864 6.46576814 20 10 C18.5625 12.375 18.5625 12.375 16 14 C12.96953066 14.32338916 10.03471946 14.23343996 7 14 C7 16.31 7 18.62 7 21 C4.69 21 2.38 21 0 21 C0 14.07 0 7.14 0 0 Z " fill="#111C48" transform="translate(209,261)"/>
<path d="M0 0 C0.70189453 0.01353516 1.40378906 0.02707031 2.12695312 0.04101562 C3.85579829 0.07629818 5.58424765 0.13010417 7.3125 0.1875 C7.3125 1.8375 7.3125 3.4875 7.3125 5.1875 C3.3525 5.1875 -0.6075 5.1875 -4.6875 5.1875 C-4.6875 6.1775 -4.6875 7.1675 -4.6875 8.1875 C-4.00042969 8.15269531 -3.31335938 8.11789062 -2.60546875 8.08203125 C-1.70441406 8.05496094 -0.80335938 8.02789062 0.125 8 C1.01832031 7.96519531 1.91164062 7.93039062 2.83203125 7.89453125 C5.3125 8.1875 5.3125 8.1875 7.109375 9.515625 C9.00225612 12.14599227 8.76161305 14.04370866 8.3125 17.1875 C6.76953125 19.36328125 6.76953125 19.36328125 4.3125 21.1875 C1.57567029 21.4786521 -0.72690039 21.57072418 -3.4375 21.4375 C-4.13488281 21.41945313 -4.83226562 21.40140625 -5.55078125 21.3828125 C-7.26361539 21.33588554 -8.97573824 21.26414605 -10.6875 21.1875 C-10.6875 19.5375 -10.6875 17.8875 -10.6875 16.1875 C-6.7275 16.1875 -2.7675 16.1875 1.3125 16.1875 C1.3125 15.1975 1.3125 14.2075 1.3125 13.1875 C0.69761719 13.22230469 0.08273438 13.25710938 -0.55078125 13.29296875 C-1.76314453 13.33357422 -1.76314453 13.33357422 -3 13.375 C-4.20076172 13.42720703 -4.20076172 13.42720703 -5.42578125 13.48046875 C-7.6875 13.1875 -7.6875 13.1875 -9.45703125 11.89453125 C-11.50086266 9.05912069 -11.04802525 6.55240235 -10.6875 3.1875 C-8.20367554 -0.87778573 -4.25374442 -0.15489826 0 0 Z " fill="#101A47" transform="translate(198.6875,260.8125)"/>
<path d="M0 0 C5.61 0 11.22 0 17 0 C17 1.65 17 3.3 17 5 C13.37 5 9.74 5 6 5 C6 5.99 6 6.98 6 8 C9.63 8 13.26 8 17 8 C17 9.65 17 11.3 17 13 C13.37 13 9.74 13 6 13 C6 13.66 6 14.32 6 15 C9.63 15 13.26 15 17 15 C17 16.65 17 18.3 17 20 C11.39 20 5.78 20 0 20 C0 13.4 0 6.8 0 0 Z " fill="#113939" transform="translate(306,262)"/>
<path d="M0 0 C0.66 0 1.32 0 2 0 C2 0.99 2 1.98 2 3 C2.99 3.33 3.98 3.66 5 4 C3.25740319 14.55808656 3.25740319 14.55808656 0 19 C-0.33 18.34 -0.66 17.68 -1 17 C-0.67 16.34 -0.34 15.68 0 15 C-1.98 15 -3.96 15 -6 15 C-6 16.65 -6 18.3 -6 20 C-6.66 20 -7.32 20 -8 20 C-8.33 19.34 -8.66 18.68 -9 18 C-11.64 22.62 -14.28 27.24 -17 32 C-14.36 32 -11.72 32 -9 32 C-9 32.66 -9 33.32 -9 34 C-13.29 34 -17.58 34 -22 34 C-21.08520462 28.5112277 -19.74018875 25.33916957 -16.875 20.8125 C-16.47265137 20.16337646 -16.07030273 19.51425293 -15.65576172 18.84545898 C-14.83640557 17.5266101 -14.01302482 16.21025267 -13.18554688 14.89648438 C-12.0858793 13.13737858 -11.01807577 11.35846255 -9.953125 9.578125 C-9.34984375 8.58296875 -8.7465625 7.5878125 -8.125 6.5625 C-7.59132812 5.67691406 -7.05765625 4.79132813 -6.5078125 3.87890625 C-6.01023438 3.25886719 -5.51265625 2.63882813 -5 2 C-4.01 2 -3.02 2 -2 2 C-2 5 -2 5 -3 7 C-2.01 6.67 -1.02 6.34 0 6 C0 4.02 0 2.04 0 0 Z " fill="#0B6078" transform="translate(235,213)"/>
<path d="M0 0 C0.99 0.33 1.98 0.66 3 1 C1.27321242 4.00137521 -0.45687227 7.00083769 -2.1875 10 C-2.67025391 10.83917969 -3.15300781 11.67835938 -3.65039062 12.54296875 C-4.61953509 14.22108467 -5.59830948 15.89367625 -6.58666992 17.56054688 C-7.50498234 19.14558362 -8.38071692 20.75634012 -9.2043457 22.39257812 C-10.33172465 24.5123797 -11.34080445 26.26353161 -13 28 C-16.10628335 28.6437893 -17.79422648 28.8003832 -20.8125 28.5 C-21.50537109 28.46390625 -22.19824219 28.4278125 -22.91210938 28.390625 C-24.61048102 28.29692174 -26.30597857 28.15342081 -28 28 C-28.33 26.68 -28.66 25.36 -29 24 C-28.67 24.66 -28.34 25.32 -28 26 C-23.71 26 -19.42 26 -15 26 C-15 25.34 -15 24.68 -15 24 C-17.64 24 -20.28 24 -23 24 C-18.47058824 11.23529412 -18.47058824 11.23529412 -14 9 C-14 9.99 -14 10.98 -14 12 C-13.34 12 -12.68 12 -12 12 C-12 10.35 -12 8.7 -12 7 C-8.535 6.505 -8.535 6.505 -5 6 C-5 6.66 -5 7.32 -5 8 C-3.35 5.36 -1.7 2.72 0 0 Z " fill="#3A7987" transform="translate(241,221)"/>
<path d="M0 0 C2.77710143 2.49644252 4.50143606 5.27766729 6.3984375 8.48046875 C7.04296875 9.56263672 7.6875 10.64480469 8.3515625 11.75976562 C9.01929688 12.89091797 9.68703125 14.02207031 10.375 15.1875 C11.69465283 17.41054798 13.01495163 19.63321264 14.3359375 21.85546875 C15.27131348 23.43787354 15.27131348 23.43787354 16.22558594 25.05224609 C17.77861321 27.63222013 19.3916573 30.15571808 21.0390625 32.67578125 C21.68617188 33.77277344 22.33328125 34.86976563 23 36 C22.67 36.66 22.34 37.32 22 38 C20.68 37.67 19.36 37.34 18 37 C18.495 37.94875 18.99 38.8975 19.5 39.875 C21 43 21 43 21 45 C17.37 45 13.74 45 10 45 C10.99 43.68 11.98 42.36 13 41 C13.66 41 14.32 41 15 41 C15 40.34 15 39.68 15 39 C14.34 39 13.68 39 13 39 C13.28875 38.21625 13.5775 37.4325 13.875 36.625 C14.06843767 31.01530756 11.76021722 27.09221336 8 23 C4.73902544 21.37678087 1.59031577 20.55344789 -2 20 C-2 19.34 -2 18.68 -2 18 C0.64 18.33 3.28 18.66 6 19 C3.9927092 15.9890638 3.16115776 15.36983503 0 14 C1.32 13.34 2.64 12.68 4 12 C3.67 10.35 3.34 8.7 3 7 C2.34 7 1.68 7 1 7 C0.67 4.69 0.34 2.38 0 0 Z " fill="#87D77B" transform="translate(269,197)"/>
<path d="M0 0 C2.4375 1 2.4375 1 4 2 C3.34 3.65 2.68 5.3 2 7 C-0.64 7 -3.28 7 -6 7 C-6 8.98 -6 10.96 -6 13 C-4.906875 12.938125 -3.81375 12.87625 -2.6875 12.8125 C1 13 1 13 2.9375 14.5 C3.288125 14.995 3.63875 15.49 4 16 C3.67 16.99 3.34 17.98 3 19 C-0.60572704 20.20190901 -3.2102435 20.32670315 -7 20 C-9.75329021 18.20437595 -11.52627461 16.94745078 -13 14 C-13.5811138 6.91041162 -13.5811138 6.91041162 -11.125 3.0625 C-7.50223248 -0.45371554 -4.97407309 -0.25727964 0 0 Z " fill="#1D4343" transform="translate(338,262)"/>
<path d="M0 0 C0.66 0 1.32 0 2 0 C2.31638428 0.58789307 2.63276855 1.17578613 2.95874023 1.78149414 C11.35829747 17.37986442 11.35829747 17.37986442 20.40795898 32.60571289 C23 36.79984233 23 36.79984233 23 39 C20.69 39 18.38 39 16 39 C15.39285156 37.26556641 15.39285156 37.26556641 14.7734375 35.49609375 C13.12053131 31.09254237 10.98621135 27.12033678 8.625 23.0625 C7.82538368 21.66544308 7.02590366 20.26830813 6.2265625 18.87109375 C5.8440332 18.20706543 5.46150391 17.54303711 5.06738281 16.85888672 C3.68971244 14.45962272 2.3412676 12.04477225 1 9.625 C0.443125 8.62339844 0.443125 8.62339844 -0.125 7.6015625 C-0.77392271 6.41380218 -1.39471077 5.21057846 -2 4 C-1.0625 1.875 -1.0625 1.875 0 0 Z " fill="#0B2334" transform="translate(254,196)"/>
<path d="M0 0 C3 1 3 1 4 3 C4.07033769 4.87379605 4.0843022 6.75001102 4.0625 8.625 C4.05347656 9.62789062 4.04445313 10.63078125 4.03515625 11.6640625 C4.02355469 12.43492187 4.01195312 13.20578125 4 14 C3.34 13.67 2.68 13.34 2 13 C2 12.34 2 11.68 2 11 C1.34 11 0.68 11 0 11 C-0.24492187 11.67417969 -0.48984375 12.34835938 -0.7421875 13.04296875 C-2.27261836 16.64090714 -4.15843308 19.93876063 -6.125 23.3125 C-6.49753906 23.95767578 -6.87007812 24.60285156 -7.25390625 25.26757812 C-8.16632213 26.84675945 -9.08275509 28.42361864 -10 30 C-10.33 30 -10.66 30 -11 30 C-11.62418232 21.22677075 -12.02272242 14.6188386 -6.3125 7.44140625 C-5.879375 6.96574219 -5.44625 6.49007812 -5 6 C-4.01 6.33 -3.02 6.66 -2 7 C-1.34 4.69 -0.68 2.38 0 0 Z " fill="#0C9999" transform="translate(254,185)"/>
<path d="M0 0 C5.94 0 11.88 0 18 0 C18 1.65 18 3.3 18 5 C16.02 5 14.04 5 12 5 C12 9.95 12 14.9 12 20 C10.02 20 8.04 20 6 20 C6 15.05 6 10.1 6 5 C4.02 5 2.04 5 0 5 C0 3.35 0 1.7 0 0 Z " fill="#113939" transform="translate(286,262)"/>
<path d="M0 0 C1.04092804 0.02009628 2.08185608 0.04019257 3.15432739 0.06089783 C4.84499832 0.10145042 4.84499832 0.10145042 6.56982422 0.14282227 C7.72118866 0.16643326 8.8725531 0.19004425 10.05880737 0.21437073 C13.74749699 0.29113441 17.43598333 0.37510418 21.12451172 0.45922852 C23.62059542 0.51243647 26.11668913 0.56517694 28.61279297 0.61743164 C34.74182584 0.74676672 40.87070693 0.8820234 46.99951172 1.02172852 C46.99951172 1.68172852 46.99951172 2.34172852 46.99951172 3.02172852 C40.98282821 4.07747929 35.13403263 4.15112117 29.03466797 4.11938477 C28.00135849 4.11796982 26.96804901 4.11655487 25.90342712 4.11509705 C22.62292511 4.10952691 19.34249289 4.09697993 16.06201172 4.08422852 C13.82959083 4.07920966 11.59716887 4.07464742 9.36474609 4.07055664 C3.9096444 4.05956726 -1.54541695 4.04285902 -7.00048828 4.02172852 C-7.00048828 3.03172852 -7.00048828 2.04172852 -7.00048828 1.02172852 C-4.47612185 -0.2404547 -2.8227824 -0.06136483 0 0 Z " fill="#2A4F50" transform="translate(247.00048828125,242.978271484375)"/>
<path d="M0 0 C2.31 0 4.62 0 7 0 C7 6.93 7 13.86 7 21 C4.69 21 2.38 21 0 21 C0 14.07 0 7.14 0 0 Z " fill="#141F4B" transform="translate(231,261)"/>
<path d="M0 0 C5.61 0 11.22 0 17 0 C17 1.98 17 3.96 17 6 C18.65 6.66 20.3 7.32 22 8 C22 8.33 22 8.66 22 9 C16.06 9 10.12 9 4 9 C4 7.68 4 6.36 4 5 C2.02 5 0.04 5 -2 5 C-1.34 3.35 -0.68 1.7 0 0 Z " fill="#158283" transform="translate(251,235)"/>
<path d="M0 0 C1.17266191 3.51798573 0.73410958 4.60797979 -0.375 8.0625 C-0.65085938 8.94035156 -0.92671875 9.81820312 -1.2109375 10.72265625 C-2 13 -2 13 -3 15 C-2.67 15 -2.34 15 -2 15 C-1.77615618 16.72722728 -1.57160031 18.45696007 -1.375 20.1875 C-1.25898438 21.15042969 -1.14296875 22.11335938 -1.0234375 23.10546875 C-0.99805058 26.24075323 -1.65640717 28.19486535 -3 31 C-3.66 31 -4.32 31 -5 31 C-4.67 28.69 -4.34 26.38 -4 24 C-4.66 23.67 -5.32 23.34 -6 23 C-6 22.01 -6 21.02 -6 20 C-6.66 20 -7.32 20 -8 20 C-7.67 22.31 -7.34 24.62 -7 27 C-8.32 27 -9.64 27 -11 27 C-10.79375 26.401875 -10.5875 25.80375 -10.375 25.1875 C-9.69328085 22.71549154 -9.69328085 22.71549154 -12 20 C-8.04 13.4 -4.08 6.8 0 0 Z " fill="#246883" transform="translate(243,193)"/>
<path d="M0 0 C7.15151515 0.36363636 7.15151515 0.36363636 10.75 3.0625 C13.3916719 6.51134942 15.24208298 10.04223152 17 14 C14.69 15.32 12.38 16.64 10 18 C8.32982236 15.18957076 6.66445191 12.37632343 5 9.5625 C4.28457031 8.35883789 4.28457031 8.35883789 3.5546875 7.13085938 C2.87792969 5.98520508 2.87792969 5.98520508 2.1875 4.81640625 C1.76855469 4.10943604 1.34960938 3.40246582 0.91796875 2.67407227 C0 1 0 1 0 0 Z " fill="#159F8F" transform="translate(267,217)"/>
<path d="M0 0 C1.32 0 2.64 0 4 0 C2.05709049 7.05582926 -1.04257152 12.8653455 -5 19 C-2.36 19 0.28 19 3 19 C3 19.66 3 20.32 3 21 C-1.29 21 -5.58 21 -10 21 C-9.01575681 15.09454086 -7.6713408 12.05191794 -4.6875 7.125 C-4.29626953 6.43664062 -3.90503906 5.74828125 -3.50195312 5.0390625 C-2.32421875 3.0703125 -2.32421875 3.0703125 0 0 Z " fill="#225B78" transform="translate(223,226)"/>
<path d="M0 0 C0.33 0 0.66 0 1 0 C1 4.62 1 9.24 1 14 C0.01 14.495 0.01 14.495 -1 15 C-1.350625 14.360625 -1.70125 13.72125 -2.0625 13.0625 C-4.77184206 10.17836168 -7.15858911 10.2899178 -11 10 C-11 8.02 -11 6.04 -11 4 C-9.741875 3.896875 -8.48375 3.79375 -7.1875 3.6875 C-3.8431664 3.28960801 -3.8431664 3.28960801 -1.0625 1.4375 C-0.711875 0.963125 -0.36125 0.48875 0 0 Z " fill="#F3F5F5" transform="translate(343,265)"/>
<path d="M0 0 C2.30874711 2.16614803 4.05290181 4.39206608 5.75 7.0625 C6.19859375 7.75472656 6.6471875 8.44695312 7.109375 9.16015625 C7.40328125 9.76730469 7.6971875 10.37445313 8 11 C7.67 11.66 7.34 12.32 7 13 C5.68 12.67 4.36 12.34 3 12 C3.495 12.94875 3.99 13.8975 4.5 14.875 C6 18 6 18 6 20 C2.37 20 -1.26 20 -5 20 C-4.01 18.68 -3.02 17.36 -2 16 C-1.34 16 -0.68 16 0 16 C0 15.34 0 14.68 0 14 C-0.66 14 -1.32 14 -2 14 C-1.625 11.5625 -1.625 11.5625 -1 9 C-0.34 8.67 0.32 8.34 1 8 C0.67 5.36 0.34 2.72 0 0 Z " fill="#97D66F" transform="translate(284,222)"/>
<path d="M0 0 C2.20028609 4.40057218 0.80903445 10.30652865 0 15 C-1.34653029 18.25300386 -2.98284205 21.11940913 -5 24 C-5.33 24 -5.66 24 -6 24 C-6.62418232 15.22677075 -7.02272242 8.6188386 -1.3125 1.44140625 C-0.879375 0.96574219 -0.44625 0.49007812 0 0 Z " fill="#1CC8E8" transform="translate(249,191)"/>
<path d="M0 0 C2.0625 0.4375 2.0625 0.4375 4 1 C4.061875 1.928125 4.12375 2.85625 4.1875 3.8125 C4.67500908 7.19196489 4.67500908 7.19196489 7.5625 8.75 C8.366875 9.1625 9.17125 9.575 10 10 C10 10.66 10 11.32 10 12 C7.03 12 4.06 12 1 12 C-1.97440393 7.45091164 -1.97440393 7.45091164 -3 5 C-2.32681681 2.67445808 -1.67512957 1.67512957 0 0 Z " fill="#178C7A" transform="translate(265,204)"/>
<path d="M0 0 C2.64 0 5.28 0 8 0 C8 0.99 8 1.98 8 3 C8.66 3.33 9.32 3.66 10 4 C9 5 9 5 5.9375 5.0625 C4.968125 5.041875 3.99875 5.02125 3 5 C7.21865028 7.01512227 11.20885432 7.41354068 15.8125 7.625 C16.50537109 7.66367188 17.19824219 7.70234375 17.91210938 7.7421875 C19.60767015 7.83573568 21.30379712 7.91892364 23 8 C23 8.33 23 8.66 23 9 C20.04160645 9.02689449 17.08345573 9.04678741 14.125 9.0625 C12.86236328 9.07506836 12.86236328 9.07506836 11.57421875 9.08789062 C10.76855469 9.09111328 9.96289062 9.09433594 9.1328125 9.09765625 C8.01737061 9.10551147 8.01737061 9.10551147 6.87939453 9.11352539 C5 9 5 9 3 8 C1.29636178 7.77377919 -0.41328701 7.59111527 -2.125 7.4375 C-3.03507812 7.35371094 -3.94515625 7.26992187 -4.8828125 7.18359375 C-5.58148438 7.12300781 -6.28015625 7.06242188 -7 7 C-7 6.67 -7 6.34 -7 6 C-4.69 6 -2.38 6 0 6 C0 4.02 0 2.04 0 0 Z " fill="#229782" transform="translate(268,235)"/>
<path d="M0 0 C0.66 0 1.32 0 2 0 C3.47309111 2.10019014 4.81309635 4.17767729 6.125 6.375 C6.68380859 7.27992188 6.68380859 7.27992188 7.25390625 8.203125 C10 12.72965316 10 12.72965316 10 15 C8.68 15.33 7.36 15.66 6 16 C5.67 17.32 5.34 18.64 5 20 C3.14314595 18.14314595 3.65322537 15.06062071 3.5 12.5625 C3.35852674 8.12215669 3.35852674 8.12215669 2 4 C1.34 4 0.68 4 0 4 C-0.33 6.31 -0.66 8.62 -1 11 C-1.99 10.34 -2.98 9.68 -4 9 C-2.94124926 5.59687262 -1.99097846 2.98646769 0 0 Z " fill="#31CEC3" transform="translate(254,182)"/>
<path d="M0 0 C3.70375547 0.5005075 5.63078899 1.06669113 8 4 C10.29404844 7.44107266 10.26293056 8.96839809 10 13 C9 14 9 14 7.15234375 14.09765625 C5.1015625 14.06510417 3.05078125 14.03255208 1 14 C1 13.67 1 13.34 1 13 C3.31 13 5.62 13 8 13 C8 12.34 8 11.68 8 11 C7.01 11 6.02 11 5 11 C4.16151196 9.54462432 3.32936066 8.08559627 2.5 6.625 C1.80390625 5.40683594 1.80390625 5.40683594 1.09375 4.1640625 C0 2 0 2 0 0 Z " fill="#8CCA6D" transform="translate(286,233)"/>
<path d="M0 0 C2.31242092 2.16323247 4.0156396 4.37647804 5.6875 7.0625 C6.34298828 8.10083984 6.34298828 8.10083984 7.01171875 9.16015625 C8 11 8 11 8 13 C7.01 13 6.02 13 5 13 C5.30035156 13.55429688 5.60070312 14.10859375 5.91015625 14.6796875 C6.48056641 15.76636719 6.48056641 15.76636719 7.0625 16.875 C7.44535156 17.59429687 7.82820313 18.31359375 8.22265625 19.0546875 C8.47917969 19.69664062 8.73570312 20.33859375 9 21 C8.67 21.66 8.34 22.32 8 23 C4.7 22.01 1.4 21.02 -2 20 C-2 19.34 -2 18.68 -2 18 C0.64 18.33 3.28 18.66 6 19 C3.9927092 15.9890638 3.16115776 15.36983503 0 14 C1.32 13.34 2.64 12.68 4 12 C3.67 10.35 3.34 8.7 3 7 C2.34 7 1.68 7 1 7 C0.67 4.69 0.34 2.38 0 0 Z " fill="#7DDAA4" transform="translate(269,197)"/>
<path d="M0 0 C2 2 2 2 2 6 C-3.28 6 -8.56 6 -14 6 C-14.33 4.68 -14.66 3.36 -15 2 C-10.05 2 -5.1 2 0 2 C0 1.34 0 0.68 0 0 Z " fill="#155762" transform="translate(268,229)"/>
<path d="M0 0 C0.33 0.99 0.66 1.98 1 3 C1.66 3 2.32 3 3 3 C3.33 2.01 3.66 1.02 4 0 C4.625 3.375 4.625 3.375 5 7 C2.6870518 9.3129482 1.52095125 9.49580975 -1.625 10.125 C-2.44226563 10.29257813 -3.25953125 10.46015625 -4.1015625 10.6328125 C-5.04128906 10.81457031 -5.04128906 10.81457031 -6 11 C-5.18993474 9.35296694 -4.3768779 7.70740494 -3.5625 6.0625 C-3.11003906 5.14597656 -2.65757812 4.22945312 -2.19140625 3.28515625 C-1 1 -1 1 0 0 Z " fill="#0E8290" transform="translate(226,230)"/>
<path d="M0 0 C0.99 0 1.98 0 3 0 C3.53109375 1.07378906 4.0621875 2.14757812 4.609375 3.25390625 C5.32280745 4.69015842 6.03635529 6.12635328 6.75 7.5625 C7.09804688 8.26697266 7.44609375 8.97144531 7.8046875 9.69726562 C9.53743848 13.17881157 11.32059301 16.57056627 13.328125 19.90234375 C13.87984375 20.92457031 14.4315625 21.94679687 15 23 C14.67 23.66 14.34 24.32 14 25 C9.72500877 18.91805372 6.17180135 12.72253472 3 6 C2.01 6.33 1.02 6.66 0 7 C-0.66 6.01 -1.32 5.02 -2 4 C-1.34 2.68 -0.68 1.36 0 0 Z " fill="#35758E" transform="translate(251,201)"/>
<path d="M0 0 C0.99 0.33 1.98 0.66 3 1 C1.19350552 4.17012935 -0.62117335 7.33549532 -2.4375 10.5 C-3.2119043 11.85931641 -3.2119043 11.85931641 -4.00195312 13.24609375 C-4.49501953 14.10332031 -4.98808594 14.96054688 -5.49609375 15.84375 C-5.95169678 16.63974609 -6.4072998 17.43574219 -6.87670898 18.25585938 C-7.24739502 18.83142578 -7.61808105 19.40699219 -8 20 C-8.33 20 -8.66 20 -9 20 C-8.65387682 12.03916679 -4.30712332 6.46068498 0 0 Z " fill="#3C8F86" transform="translate(241,221)"/>
<path d="M0 0 C3.53571429 0.53571429 3.53571429 0.53571429 5 2 C5.1875 4.4375 5.1875 4.4375 5 7 C4.34 7.66 3.68 8.32 3 9 C0.06546739 8.63318342 -0.86437246 8.13562754 -3 6 C-2.63318342 3.06546739 -2.13562754 2.13562754 0 0 Z " fill="#EAEBEF" transform="translate(272,267)"/>
<path d="M0 0 C1.32 0.33 2.64 0.66 4 1 C3.35546875 1.82757813 2.7109375 2.65515625 2.046875 3.5078125 C-0.35754828 7.11444741 -0.65931901 10.62123739 -0.75 14.875 C-0.77964844 15.56335938 -0.80929688 16.25171875 -0.83984375 16.9609375 C-0.90980536 18.64001626 -0.95725211 20.32000812 -1 22 C-3.1385485 19.8614515 -3.42655063 18.86724686 -4 16 C-4.66 16.33 -5.32 16.66 -6 17 C-5.71382812 16.47921875 -5.42765625 15.9584375 -5.1328125 15.421875 C-3.73563359 12.43480284 -2.82235014 9.40783381 -1.875 6.25 C-1.52179688 5.07953125 -1.16859375 3.9090625 -0.8046875 2.703125 C-0.53914062 1.81109375 -0.27359375 0.9190625 0 0 Z " fill="#128EAE" transform="translate(244,193)"/>
<path d="M0 0 C0.99 0.33 1.98 0.66 3 1 C1.43358249 5.30764815 -0.68336156 9.06171464 -3 13 C-4.32 12.67 -5.64 12.34 -7 12 C-5.44298069 7.32894208 -2.91552627 3.91294315 0 0 Z " fill="#235F7B" transform="translate(231,214)"/>
<path d="M0 0 C0.22384382 1.72722728 0.42839969 3.45696007 0.625 5.1875 C0.74101562 6.15042969 0.85703125 7.11335937 0.9765625 8.10546875 C1.00194942 11.24075323 0.34359283 13.19486535 -1 16 C-1.66 16 -2.32 16 -3 16 C-2.67 13.69 -2.34 11.38 -2 9 C-2.66 8.67 -3.32 8.34 -4 8 C-4.1875 5.125 -4.1875 5.125 -4 2 C-1 0 -1 0 0 0 Z " fill="#1A7891" transform="translate(241,208)"/>
<path d="M0 0 C6.50313209 -0.46450943 10.4174808 0.67424388 16 4 C16 4.33 16 4.66 16 5 C14.66195313 4.89171875 14.66195313 4.89171875 13.296875 4.78125 C12.12640625 4.6884375 10.9559375 4.595625 9.75 4.5 C8.58984375 4.4071875 7.4296875 4.314375 6.234375 4.21875 C3.82731342 4.05595356 1.41256049 4 -1 4 C-0.67 2.68 -0.34 1.36 0 0 Z " fill="#1FBDC4" transform="translate(251,235)"/>
<path d="M0 0 C2.76390737 2.40339772 3.04065919 3.16263678 4 7 C0.37 7 -3.26 7 -7 7 C-4.66666667 4.66666667 -2.33333333 2.33333333 0 0 Z " fill="#B1F2C8" transform="translate(286,235)"/>
<path d="M0 0 C2.35086573 2.13715066 3.6612688 4.1312903 5 7 C5.33 7.33 5.66 7.66 6 8 C6.04063832 9.66617115 6.042721 11.33388095 6 13 C5.01 13.33 4.02 13.66 3 14 C2.731875 13.21625 2.46375 12.4325 2.1875 11.625 C1.15185568 8.71885077 1.15185568 8.71885077 -2 7 C-1.34 6.67 -0.68 6.34 0 6 C0 4.02 0 2.04 0 0 Z " fill="#4DC184" transform="translate(267,196)"/>
<path d="M0 0 C1.43886318 2.87772637 0.96522548 5.18248874 0.75 8.375 C0.68296875 9.51710937 0.6159375 10.65921875 0.546875 11.8359375 C-0.01935839 15.11200209 -0.78415884 16.58163572 -3 19 C-3.0814222 16.77144426 -3.13938079 14.54202345 -3.1875 12.3125 C-3.22230469 11.07113281 -3.25710937 9.82976562 -3.29296875 8.55078125 C-2.9846829 4.81435679 -2.18088273 2.99370517 0 0 Z " fill="#16BDDA" transform="translate(249,191)"/>
<path d="M0 0 C2.625 -0.1875 2.625 -0.1875 5 0 C5 1.65 5 3.3 5 5 C4.01 4.67 3.02 4.34 2 4 C1.67 4.99 1.34 5.98 1 7 C0.01 6.67 -0.98 6.34 -2 6 C-2.33 6.66 -2.66 7.32 -3 8 C-2.45276317 4.62537285 -1.9451 2.91765 0 0 Z " fill="#1F8689" transform="translate(252,178)"/>
<path d="M0 0 C0.721875 0.165 1.44375 0.33 2.1875 0.5 C0.89784824 1.87562854 -0.43939293 3.20766393 -1.8125 4.5 C-2.4725 4.5 -3.1325 4.5 -3.8125 4.5 C-3.4825 5.82 -3.1525 7.14 -2.8125 8.5 C-3.4725 8.5 -4.1325 8.5 -4.8125 8.5 C-4.8125 10.15 -4.8125 11.8 -4.8125 13.5 C-5.4725 13.5 -6.1325 13.5 -6.8125 13.5 C-7.91124918 10.79538664 -8.05970163 9.09971337 -6.94140625 6.38671875 C-3.67217354 0.65283085 -3.67217354 0.65283085 0 0 Z " fill="#0B6B85" transform="translate(233.8125,219.5)"/>
<path d="M0 0 C4.29 0.66 8.58 1.32 13 2 C13 2.66 13 3.32 13 4 C8.71 4 4.42 4 0 4 C0 2.68 0 1.36 0 0 Z " fill="#123959" transform="translate(213,243)"/>
<path d="M0 0 C2.97 0 5.94 0 9 0 C9 1.98 9 3.96 9 6 C6.69 6 4.38 6 2 6 C2.33 5.34 2.66 4.68 3 4 C3.99 4 4.98 4 6 4 C4.02 3.01 2.04 2.02 0 1 C0 0.67 0 0.34 0 0 Z " fill="#24B3B4" transform="translate(259,235)"/>
<path d="M0 0 C-0.61754259 1.31602523 -1.24428742 2.62773556 -1.875 3.9375 C-2.22304687 4.66839844 -2.57109375 5.39929688 -2.9296875 6.15234375 C-4 8 -4 8 -6 9 C-6.33 6.36 -6.66 3.72 -7 1 C-4.53721199 -0.231394 -2.7204945 -0.07159196 0 0 Z " fill="#3BC2D4" transform="translate(236,227)"/>
<path d="M0 0 C2.46800047 1.15173355 4.04783565 2.04783565 6 4 C6.125 7.125 6.125 7.125 6 10 C5.01 10.495 5.01 10.495 4 11 C0 4.5 0 4.5 0 0 Z " fill="#0F837D" transform="translate(273,224)"/>
<path d="M0 0 C1.15900604 3.47701813 0.78310211 4.62389054 -0.25 8.0625 C-0.62898437 9.37927734 -0.62898437 9.37927734 -1.015625 10.72265625 C-2 13 -2 13 -5 15 C-5.67081836 8.56014376 -3.75430238 5.16216577 0 0 Z " fill="#257D9C" transform="translate(243,193)"/>
<path d="M0 0 C0.75 2.1875 0.75 2.1875 1 5 C-0.9375 7.8125 -0.9375 7.8125 -3 10 C-5.06878307 5.61904762 -5.06878307 5.61904762 -4.75 2.75 C-3.68580016 0.26686704 -2.63732639 0 0 0 Z " fill="#22AA91" transform="translate(264,197)"/>
<path d="M0 0 C0.33 0.66 0.66 1.32 1 2 C-0.0625 4 -0.0625 4 -2 6 C-5.6875 6.25 -5.6875 6.25 -9 6 C-8 3 -8 3 -6.15234375 2.05078125 C-5.42144531 1.80714844 -4.69054687 1.56351563 -3.9375 1.3125 C-3.20402344 1.06113281 -2.47054687 0.80976563 -1.71484375 0.55078125 C-0.86599609 0.27814453 -0.86599609 0.27814453 0 0 Z " fill="#47C9CF" transform="translate(228,238)"/>
<path d="M0 0 C2.475 0.495 2.475 0.495 5 1 C5.66 3.64 6.32 6.28 7 9 C6.01 9 5.02 9 4 9 C0 2.25 0 2.25 0 0 Z " fill="#68D272" transform="translate(279,221)"/>
<path d="M0 0 C2.64 0 5.28 0 8 0 C8.66 1.32 9.32 2.64 10 4 C7.03 4 4.06 4 1 4 C0.67 2.68 0.34 1.36 0 0 Z " fill="#32B59C" transform="translate(265,212)"/>
<path d="M0 0 C2.0625 0.4375 2.0625 0.4375 4 1 C5.29925791 5.33085971 6.343621 9.51474352 7 14 C4.66118993 11.87380903 3.05961238 10.00223508 2 7 C2.375 4.25 2.375 4.25 3 2 C1.68 1.67 0.36 1.34 -1 1 C-0.67 0.67 -0.34 0.34 0 0 Z " fill="#46B0A2" transform="translate(254,176)"/>
<path d="M0 0 C2.31 0 4.62 0 7 0 C7 1.32 7 2.64 7 4 C4.36 4 1.72 4 -1 4 C-0.67 2.68 -0.34 1.36 0 0 Z " fill="#0D7883" transform="translate(248,240)"/>
<path d="M0 0 C3.63 0 7.26 0 11 0 C10.01 0.495 10.01 0.495 9 1 C9.33 2.65 9.66 4.3 10 6 C8.68 6 7.36 6 6 6 C6 4.68 6 3.36 6 2 C4.02 2 2.04 2 0 2 C0 1.34 0 0.68 0 0 Z " fill="#18A0A3" transform="translate(249,238)"/>
<path d="M0 0 C7.26153846 0.36923077 7.26153846 0.36923077 11 3.5625 C11.99 4.7690625 11.99 4.7690625 13 6 C12.01 6.495 12.01 6.495 11 7 C10.67 6.34 10.34 5.68 10 5 C7.91703151 4.16630436 7.91703151 4.16630436 5.5 3.5 C3.03125 2.78125 3.03125 2.78125 1 2 C0.67 1.34 0.34 0.68 0 0 Z " fill="#38B8AE" transform="translate(267,217)"/>
<path d="M0 0 C2.31 0 4.62 0 7 0 C7 1.32 7 2.64 7 4 C4.69 4 2.38 4 0 4 C0 2.68 0 1.36 0 0 Z " fill="#E7E8ED" transform="translate(247,266)"/>
<path d="M0 0 C0.66 0.66 1.32 1.32 2 2 C1.34 3.98 0.68 5.96 0 8 C0.66 8 1.32 8 2 8 C1.34 9.98 0.68 11.96 0 14 C-0.66 14 -1.32 14 -2 14 C-1.85923685 12.0412957 -1.7122324 10.08303907 -1.5625 8.125 C-1.48128906 7.03445312 -1.40007812 5.94390625 -1.31640625 4.8203125 C-1 2 -1 2 0 0 Z " fill="#0F9CB3" transform="translate(250,191)"/>
<path d="M0 0 C1.70884005 1.62339805 3.37446717 3.29319053 5 5 C5 5.66 5 6.32 5 7 C4.360625 7.12375 3.72125 7.2475 3.0625 7.375 C2.0415625 7.684375 2.0415625 7.684375 1 8 C0.67 8.66 0.34 9.32 0 10 C0 6.7 0 3.4 0 0 Z " fill="#3EDFD1" transform="translate(259,190)"/>
<path d="M0 0 C0.33 0.66 0.66 1.32 1 2 C1.66 2 2.32 2 3 2 C3 3.98 3 5.96 3 8 C0.36 8 -2.28 8 -5 8 C-5 7.67 -5 7.34 -5 7 C-2.69 7 -0.38 7 2 7 C2 6.34 2 5.68 2 5 C1.01 5 0.02 5 -1 5 C-1.33 3.68 -1.66 2.36 -2 1 C-1.34 0.67 -0.68 0.34 0 0 Z " fill="#70A85E" transform="translate(292,239)"/>
<path d="M0 0 C0.103125 0.639375 0.20625 1.27875 0.3125 1.9375 C0.539375 2.618125 0.76625 3.29875 1 4 C1.99 4.33 2.98 4.66 4 5 C2.02253397 5.73080266 0.01927511 6.39421747 -2 7 C-2.66 6.67 -3.32 6.34 -4 6 C-2.68 4.02 -1.36 2.04 0 0 Z " fill="#0E95A2" transform="translate(224,234)"/>
<path d="M0 0 C1.65 0 3.3 0 5 0 C5 1.32 5 2.64 5 4 C3.35 4 1.7 4 0 4 C0 2.68 0 1.36 0 0 Z " fill="#DFE0E7" transform="translate(216,266)"/>
<path d="M0 0 C0.33 1.32 0.66 2.64 1 4 C1.66 4 2.32 4 3 4 C2.67 4.66 2.34 5.32 2 6 C-0.97 5.505 -0.97 5.505 -4 5 C-2.25 1.125 -2.25 1.125 0 0 Z " fill="#5ED07B" transform="translate(281,232)"/>
<path d="M0 0 C4.12751449 0.60698743 7.3321148 2.03810791 11 4 C11 4.33 11 4.66 11 5 C4.6 4.50769231 4.6 4.50769231 1.5625 1.9375 C1.046875 1.298125 0.53125 0.65875 0 0 Z " fill="#6FE3E6" transform="translate(256,235)"/>
<path d="M0 0 C1.32 0 2.64 0 4 0 C4 0.66 4 1.32 4 2 C4.66 2.33 5.32 2.66 6 3 C4.02 3.99 2.04 4.98 0 6 C0 4.02 0 2.04 0 0 Z " fill="#13606D" transform="translate(249,231)"/>
<path d="M0 0 C4.42857143 5.14285714 4.42857143 5.14285714 5 9 C3.68 8.67 2.36 8.34 1 8 C0.67 5.36 0.34 2.72 0 0 Z " fill="#65CAAF" transform="translate(259,180)"/>
<path d="M0 0 C0.99 0.33 1.98 0.66 3 1 C0.525 5.455 0.525 5.455 -2 10 C-2.33 10 -2.66 10 -3 10 C-3.26046037 6.87447554 -3.27021697 5.40532546 -1.5 2.75 C-1.005 2.1725 -0.51 1.595 0 1 C0 0.67 0 0.34 0 0 Z " fill="#279E9D" transform="translate(249,207)"/>
<path d="M0 0 C0.33 0 0.66 0 1 0 C1.33 2.64 1.66 5.28 2 8 C0.68 7.34 -0.64 6.68 -2 6 C-1.125 1.125 -1.125 1.125 0 0 Z " fill="#096182" transform="translate(240,208)"/>
<path d="M0 0 C0.99 0 1.98 0 3 0 C3.33 0.99 3.66 1.98 4 3 C2.5625 5.1875 2.5625 5.1875 1 7 C0.34 6.67 -0.32 6.34 -1 6 C-0.67 4.02 -0.34 2.04 0 0 Z " fill="#0E93A3" transform="translate(251,193)"/>
<path d="M0 0 C1.65 0.33 3.3 0.66 5 1 C4.34 2.65 3.68 4.3 3 6 C1.68 4.68 0.36 3.36 -1 2 C-0.67 1.34 -0.34 0.68 0 0 Z " fill="#49C8A6" transform="translate(261,189)"/>
<path d="M0 0 C1.98 0 3.96 0 6 0 C6 1.32 6 2.64 6 4 C4.35 3.67 2.7 3.34 1 3 C0.67 2.01 0.34 1.02 0 0 Z " fill="#0A7C71" transform="translate(269,236)"/>
<path d="M0 0 C2 2 2 2 2 6 C-0.71631546 5.09456151 -3.34771188 4.07525194 -6 3 C-6 2.67 -6 2.34 -6 2 C-4.02 2 -2.04 2 0 2 C0 1.34 0 0.68 0 0 Z " fill="#103E51" transform="translate(268,229)"/>
<path d="M0 0 C0.99 0 1.98 0 3 0 C3 1.32 3 2.64 3 4 C3.66 4 4.32 4 5 4 C5 5.32 5 6.64 5 8 C4.01 7.67 3.02 7.34 2 7 C0.8125 3.4375 0.8125 3.4375 0 0 Z " fill="#63CE6F" transform="translate(274,210)"/>
<path d="M0 0 C0.33 0.99 0.66 1.98 1 3 C0.67 3.33 0.34 3.66 0 4 C-0.36760731 6.32817964 -0.70241581 8.6618385 -1 11 C-1.99 10.34 -2.98 9.68 -4 9 C-2.94124926 5.59687262 -1.99097846 2.98646769 0 0 Z " fill="#27B2BC" transform="translate(254,182)"/>
<path d="M0 0 C1.76462683 3.08809695 2 4.23312136 2 8 C1.01 8 0.02 8 -1 8 C-1.125 2.25 -1.125 2.25 0 0 Z " fill="#E3E4E9" transform="translate(175,266)"/>
<path d="M0 0 C0.66 0 1.32 0 2 0 C2.33 1.65 2.66 3.3 3 5 C2.01 5.495 2.01 5.495 1 6 C0.34 5.67 -0.32 5.34 -1 5 C-0.67 3.35 -0.34 1.7 0 0 Z " fill="#84E485" transform="translate(283,231)"/>
<path d="M0 0 C0.66 0 1.32 0 2 0 C1.1875 2.4375 1.1875 2.4375 0 5 C-0.99 5.33 -1.98 5.66 -3 6 C-2.42655063 3.13275314 -2.1385485 2.1385485 0 0 Z " fill="#165E7D" transform="translate(219,238)"/>
<path d="M0 0 C0.33 2.31 0.66 4.62 1 7 C-0.32 7 -1.64 7 -3 7 C-2.814375 6.38125 -2.62875 5.7625 -2.4375 5.125 C-1.76313824 2.95839822 -1.76313824 2.95839822 -3 1 C-1 0 -1 0 0 0 Z " fill="#17708E" transform="translate(235,213)"/>
<path d="M0 0 C0.66 0 1.32 0 2 0 C2 1.98 2 3.96 2 6 C1.01 5.67 0.02 5.34 -1 5 C-1.33 5.66 -1.66 6.32 -2 7 C-1.125 2.25 -1.125 2.25 0 0 Z " fill="#257C8D" transform="translate(251,179)"/>
</svg>
